<?xml version="1.0" encoding="UTF-8"?>
<svg version="1.1" xmlns="http://www.w3.org/2000/svg" width="385" height="474">
<path d="M0 0 C1.05219727 0.00644531 2.10439453 0.01289062 3.18847656 0.01953125 C19.13881198 0.39149366 31.95532698 6.40292062 43.625 17.3125 C56.06667427 30.58017754 60.81105094 46.35897461 60.51953125 64.18359375 C59.9658194 79.75206865 52.52438123 93.93313394 41.3125 104.5 C29.39011801 115.34049615 13.96390176 121.37179657 -2.26171875 120.8046875 C-7.03729921 120.20485614 -11.73076657 119.18146911 -16.4296875 118.15625 C-19.62377885 117.40126389 -19.62377885 117.40126389 -22.6875 117.5 C-7.79568906 127.08660329 7.44743513 132.17230563 25.28808594 128.36376953 C32.25304439 126.73252868 38.03741089 124.43491864 44.078125 120.4765625 C46.3125 119.5 46.3125 119.5 48.30859375 120.22460938 C50.51400863 121.62825062 51.33731298 122.67080299 52.609375 124.9296875 C53.00680908 125.63230713 53.40424316 126.33492676 53.8137207 127.05883789 C54.43186646 128.20533813 54.43186646 128.20533813 55.0625 129.375 C55.49715576 130.17220459 55.93181152 130.96940918 56.37963867 131.79077148 C80.16401405 176.50226596 82.41265463 226.05779639 69.26171875 274.359375 C61.77563628 298.85928128 48.22956289 320.48844361 31.3125 339.5 C30.66539062 340.26828125 30.01828125 341.0365625 29.3515625 341.828125 C25.3707453 346.54746485 21.04261263 350.54346627 16.3125 354.5 C15.38050781 355.30824219 14.44851563 356.11648438 13.48828125 356.94921875 C7.44108715 362.1545965 1.33017008 366.68064859 -5.6875 370.5 C-5.20193167 365.6443167 -4.58609405 360.90271136 -3.671875 356.109375 C-2.46306628 348.90068008 -2.30254634 341.7978455 -2.3125 334.5 C-2.31304382 333.82257751 -2.31358765 333.14515503 -2.31414795 332.44720459 C-2.35705576 320.76838594 -3.42917902 309.7507611 -6.6875 298.5 C-6.89117187 297.78279785 -7.09484375 297.0655957 -7.3046875 296.32666016 C-11.93842723 280.57695064 -19.57491722 265.6307947 -29.875 252.84765625 C-31.47111159 250.78027895 -32.6290468 248.87600692 -33.6875 246.5 C-28.22955204 241.5541558 -22.66176807 236.78314319 -16.9375 232.1484375 C-14.37677205 230.07194977 -11.84251949 227.96534596 -9.3125 225.8515625 C-8.549375 225.21621582 -7.78625 224.58086914 -7 223.92626953 C-5.47639192 222.65713231 -3.95548452 221.3847448 -2.4375 220.10888672 C-1.73625 219.5263916 -1.035 218.94389648 -0.3125 218.34375 C0.31398438 217.81974609 0.94046875 217.29574219 1.5859375 216.75585938 C3.3125 215.5 3.3125 215.5 6.3125 214.5 C8.56313389 210.59100429 9.29817788 205.91049086 8.3125 201.5 C4.91062339 195.46339826 -0.84074095 194.13547376 -7.015625 191.9375 C-8.16677795 191.51354446 -9.31793091 191.08958893 -10.50396729 190.65278625 C-13.00032319 189.73562078 -15.49796111 188.82427105 -17.99975586 187.92227173 C-21.99052683 186.48327239 -25.97335947 185.02315682 -29.95507812 183.55932617 C-34.08765021 182.04110169 -38.22069008 180.52422966 -42.35644531 179.01469421 C-54.84557359 174.4557845 -67.29543008 169.79595021 -79.73782349 165.11090088 C-85.48365556 162.94826523 -91.23202297 160.79239549 -96.98046875 158.63671875 C-98.67096596 158.00268127 -98.67096596 158.00268127 -100.39561462 157.35583496 C-113.09103963 152.59603634 -125.79462243 147.85815718 -138.5 143.125 C-139.54478516 142.73567291 -140.58957031 142.34634583 -141.66601562 141.94522095 C-142.67857422 141.56795868 -143.69113281 141.19069641 -144.734375 140.80200195 C-146.21603653 140.24990807 -146.21603653 140.24990807 -147.72763062 139.68666077 C-149.6467981 138.97272307 -151.56656259 138.26038784 -153.48696899 137.54978943 C-158.03757288 135.86561508 -162.5782336 134.16163427 -167.10302734 132.40917969 C-167.96353195 132.08033783 -168.82403656 131.75149597 -169.71061707 131.41268921 C-171.31003293 130.80100161 -172.90616968 130.18063106 -174.4980011 129.54946899 C-180.00379634 127.46031318 -184.61103616 127.08980482 -190.5 127.875 C-193.65779683 130.22079193 -193.80531935 132.39955064 -194.48015404 136.19083405 C-194.9407415 143.54164203 -193.27725383 150.85480817 -192.0246582 158.07324219 C-191.71304844 159.94648177 -191.40298521 161.81997917 -191.09434509 163.69371033 C-190.25504249 168.76025749 -189.39352883 173.82279394 -188.52735162 178.88480663 C-187.62284095 184.19046751 -186.73715246 189.49927223 -185.84892273 194.80767822 C-184.35529047 203.71682151 -182.847755 212.62352346 -181.33129883 221.52880859 C-179.57893633 231.82012992 -177.84593331 242.11456228 -176.12383777 252.41098857 C-174.46519084 262.3266976 -172.7954844 272.24050965 -171.11983299 282.15335846 C-170.40743705 286.36799991 -169.69844228 290.58319258 -168.99209023 294.79885101 C-168.15989601 299.76134414 -167.31787518 304.72207346 -166.468256 309.68161201 C-166.15816558 311.50072149 -165.85134309 313.32039153 -165.54804611 315.14064598 C-165.13317966 317.62694596 -164.70641032 320.11091782 -164.27656555 322.59466553 C-164.15942949 323.31353841 -164.04229343 324.03241128 -163.92160779 324.77306819 C-163.00690156 329.9457288 -161.55539707 334.42455881 -158 338.375 C-154.46119552 340.09658056 -151.46152976 340.39599268 -147.6875 339.5 C-144.32574957 337.61414 -141.58231572 335.02741233 -138.6875 332.5 C-137.39289419 331.43055789 -136.09438201 330.36583507 -134.79296875 329.3046875 C-127.50951786 323.36572048 -120.29904965 317.34489098 -113.140625 311.25610352 C-109.33218525 308.0245374 -105.45647926 304.89178046 -101.54296875 301.7890625 C-96.24972577 297.5457788 -91.03301582 293.2087247 -85.80078125 288.890625 C-82.52282249 286.1857673 -79.23337 283.49552155 -75.9375 280.8125 C-71.96060579 277.56580943 -68.03597164 274.26284733 -64.125 270.9375 C-58.72936508 266.3504145 -53.24351726 261.89199251 -47.6875 257.5 C-46.8315625 256.74589844 -45.975625 255.99179688 -45.09375 255.21484375 C-44.2996875 254.64894531 -43.505625 254.08304688 -42.6875 253.5 C-39.6875 254.5 -39.6875 254.5 -38.00390625 257.640625 C-37.40535895 259.00439511 -36.82161651 260.37472463 -36.25 261.75 C-35.94288086 262.47799805 -35.63576172 263.20599609 -35.31933594 263.95605469 C-22.40498457 295.11687081 -22.46990863 328.63481462 -35.19873047 359.93432617 C-41.18643845 373.98977977 -49.84369162 385.31457999 -60.08984375 396.5625 C-65.17602836 402.31409523 -69.98615119 408.29998799 -74.84375 414.24462891 C-77.84730319 417.91873171 -80.86006189 421.58523705 -83.875 425.25 C-84.74572144 426.30888428 -84.74572144 426.30888428 -85.6340332 427.38916016 C-89.68679293 432.30877447 -93.79199719 437.18095279 -97.92211914 442.03564453 C-102.78773319 447.76937465 -107.44531546 453.66472148 -112.109375 459.5625 C-112.91890625 460.573125 -113.7284375 461.58375 -114.5625 462.625 C-115.30242187 463.55570312 -116.04234375 464.48640625 -116.8046875 465.4453125 C-117.42601562 466.12335938 -118.04734375 466.80140625 -118.6875 467.5 C-119.3475 467.5 -120.0075 467.5 -120.6875 467.5 C-121.0175 455.29 -121.3475 443.08 -121.6875 430.5 C-126.6375 431.16 -131.5875 431.82 -136.6875 432.5 C-139.81653763 432.69001254 -142.81943278 432.83772018 -145.9375 432.8125 C-146.72850098 432.80613525 -147.51950195 432.79977051 -148.33447266 432.79321289 C-176.43416304 432.21277849 -203.72468577 422.37997051 -224.6875 403.5 C-225.5125 402.81679688 -226.3375 402.13359375 -227.1875 401.4296875 C-250.49467019 381.69142775 -263.28495697 352.44915875 -266.4375 322.5 C-268.09970919 294.08006102 -260.92401858 268.88281245 -246.6875 244.5 C-257.06159599 255.36459699 -264.90928468 267.18331332 -271.6875 280.5 C-272.3475 280.5 -273.0075 280.5 -273.6875 280.5 C-279.4837259 263.03403928 -283.75075818 245.70420407 -283.8359375 227.21484375 C-283.84282089 226.40898834 -283.84970428 225.60313293 -283.85679626 224.77285767 C-283.88472218 220.74324636 -283.85843631 216.72539807 -283.74536133 212.69726562 C-283.44172519 204.89543206 -283.44172519 204.89543206 -286.62597656 198.04711914 C-288.95331578 196.18891409 -288.95331578 196.18891409 -291.41772461 194.86914062 C-297.54241894 191.17469233 -300.82561967 183.17623514 -302.6875 176.5 C-303.10112867 173.52729489 -303.16642988 170.62336731 -303.125 167.625 C-303.11525146 166.83416016 -303.10550293 166.04332031 -303.09545898 165.22851562 C-302.73972496 153.48808688 -298.10151949 146.55567113 -289.6875 138.5 C-281.50543075 131.1764348 -272.34111024 129.75688299 -261.625 130.1640625 C-250.67480117 131.09830565 -244.26937766 135.81910528 -236.6875 143.5 C-235.80578125 144.37978516 -235.80578125 144.37978516 -234.90625 145.27734375 C-234.30296875 145.88255859 -234.30296875 145.88255859 -233.6875 146.5 C-239.1029257 136.7918588 -246.36513189 131.00317556 -257.0703125 127.91015625 C-257.60398437 127.77480469 -258.13765625 127.63945313 -258.6875 127.5 C-254.42871601 105.39488308 -225.06405681 81.81494363 -207.64013672 69.81103516 C-178.75990434 50.42033149 -146.57606405 38.89226664 -111.6875 37.5 C-110.80707031 37.46455078 -109.92664063 37.42910156 -109.01953125 37.39257812 C-91.18192983 36.78306455 -74.15170597 38.95993166 -56.6875 42.5 C-56.5740625 41.61828125 -56.460625 40.7365625 -56.34375 39.828125 C-53.91141251 27.49269915 -43.79519941 17.25470443 -34 10.02734375 C-23.39811823 3.02508738 -12.65910737 -0.08143524 0 0 Z M-232.6875 148.5 C-231.6875 150.5 -231.6875 150.5 -231.6875 150.5 Z " fill="#F18F26" transform="translate(302.6875,-0.5)"/>
<path d="M0 0 C0.1659251 1.00441226 0.1659251 1.00441226 0.33520222 2.02911568 C3.02894388 18.33126331 5.73344475 34.6315857 8.44989491 50.92996407 C9.76329736 58.8118191 11.07306756 66.6942455 12.37426758 74.578125 C13.50856417 81.45069084 14.64969658 88.3220807 15.7990095 95.1921519 C16.40717456 98.82894779 17.0119301 102.46623621 17.60849953 106.10495377 C18.27503261 110.16960394 18.95681669 114.23155418 19.63989258 118.29345703 C19.834823 119.49683212 20.02975342 120.70020721 20.23059082 121.94004822 C21.77921025 131.11071943 21.77921025 131.11071943 26.6875 138.875 C30.22630448 140.59658056 33.22597024 140.89599268 37 140 C40.36175043 138.11414 43.10518428 135.52741233 46 133 C47.29460581 131.93055789 48.59311799 130.86583507 49.89453125 129.8046875 C57.17798214 123.86572048 64.38845035 117.84489098 71.546875 111.75610352 C75.35531475 108.5245374 79.23102074 105.39178046 83.14453125 102.2890625 C88.43777423 98.0457788 93.65448418 93.7087247 98.88671875 89.390625 C102.16467751 86.6857673 105.45413 83.99552155 108.75 81.3125 C112.72689421 78.06580943 116.65152836 74.76284733 120.5625 71.4375 C125.95813492 66.8504145 131.44398274 62.39199251 137 58 C137.8559375 57.24589844 138.711875 56.49179688 139.59375 55.71484375 C140.3878125 55.14894531 141.181875 54.58304688 142 54 C145 55 145 55 146.68359375 58.140625 C147.28214105 59.50439511 147.86588349 60.87472463 148.4375 62.25 C148.74461914 62.97799805 149.05173828 63.70599609 149.36816406 64.45605469 C162.28251543 95.61687081 162.21759137 129.13481462 149.48876953 160.43432617 C143.50106155 174.48977977 134.84380838 185.81457999 124.59765625 197.0625 C119.51147164 202.81409523 114.70134881 208.79998799 109.84375 214.74462891 C106.84019681 218.41873171 103.82743811 222.08523705 100.8125 225.75 C100.23201904 226.45592285 99.65153809 227.1618457 99.0534668 227.88916016 C95.00070707 232.80877447 90.89550281 237.68095279 86.76538086 242.53564453 C81.89976681 248.26937465 77.24218454 254.16472148 72.578125 260.0625 C71.76859375 261.073125 70.9590625 262.08375 70.125 263.125 C69.38507813 264.05570312 68.64515625 264.98640625 67.8828125 265.9453125 C67.26148438 266.62335938 66.64015625 267.30140625 66 268 C65.34 268 64.68 268 64 268 C63.67 255.79 63.34 243.58 63 231 C55.575 231.99 55.575 231.99 48 233 C44.87096237 233.19001254 41.86806722 233.33772018 38.75 233.3125 C37.56349854 233.30295288 37.56349854 233.30295288 36.35302734 233.29321289 C8.25333696 232.71277849 -19.03718577 222.87997051 -40 204 C-41.2375 202.97519531 -41.2375 202.97519531 -42.5 201.9296875 C-65.80717019 182.19142775 -78.59745697 152.94915875 -81.75 123 C-83.31148316 96.30224355 -77.81717333 68.08558083 -62 46 C-60.33333333 44.33333333 -58.66666667 42.66666667 -57 41 C-56.15310973 39.84313682 -55.32119458 38.67524254 -54.5 37.5 C-43.65354459 22.83514957 -19.57533372 0 0 0 Z " fill="#3DA707" transform="translate(118,199)"/>
<path d="M0 0 C13.42058544 9.64267265 22.67265799 22.70766734 26.1796875 39.06640625 C28.35125123 56.77129833 25.24943108 73.56793708 14.421875 88.05078125 C1.68711892 102.72246701 -12.96356784 109.32837286 -31.9296875 111.46875 C-41.56661839 111.90513932 -51.76130351 109.16873669 -60.4375 105.1875 C-60.4375 104.5275 -60.4375 103.8675 -60.4375 103.1875 C-61.30503906 102.96191406 -62.17257812 102.73632812 -63.06640625 102.50390625 C-66.89372997 101.00934299 -69.45501428 98.91987066 -72.375 96.125 C-72.89787598 95.63040283 -73.42075195 95.13580566 -73.95947266 94.6262207 C-85.12806045 83.8746812 -92.12202024 71.5250097 -92.67578125 55.7734375 C-93.06112689 34.27011424 -93.06112689 34.27011424 -88.4375 25.1875 C-87.95152344 24.18976562 -87.46554688 23.19203125 -86.96484375 22.1640625 C-79.42613789 8.01339475 -67.11863964 -2.27144398 -51.8996582 -7.36987305 C-34.31303616 -12.32284007 -15.32516908 -9.6520009 0 0 Z " fill="#1281B5" transform="translate(336.4375,8.8125)"/>
<path d="M0 0 C3 1 3 1 4.68359375 4.140625 C5.28214105 5.50439511 5.86588349 6.87472463 6.4375 8.25 C6.74461914 8.97799805 7.05173828 9.70599609 7.36816406 10.45605469 C19.44395286 39.59351762 19.9501931 70.1494207 10 100 C7.43033526 100.8685347 5.00956352 101.53797604 2.375 102.125 C1.32505859 102.37830078 1.32505859 102.37830078 0.25390625 102.63671875 C-31.94306495 110.22301809 -64.08048222 102.68434454 -92 86 C-93.3594651 85.03582552 -94.71176096 84.05745825 -96 83 C-93.051766 76.03144691 -87.68571047 71.79185502 -81.875 67.26953125 C-78.68491109 64.75126813 -75.59037887 62.13868026 -72.5 59.5 C-68.01333996 55.68076628 -63.47295766 51.94991015 -58.85546875 48.2890625 C-53.56222577 44.0457788 -48.34551582 39.7087247 -43.11328125 35.390625 C-39.83532249 32.6857673 -36.54587 29.99552155 -33.25 27.3125 C-29.27310579 24.06580943 -25.34847164 20.76284733 -21.4375 17.4375 C-16.04186508 12.8504145 -10.55601726 8.39199251 -5 4 C-4.1440625 3.24589844 -3.288125 2.49179688 -2.40625 1.71484375 C-1.6121875 1.14894531 -0.818125 0.58304688 0 0 Z " fill="#349405" transform="translate(260,253)"/>
<path d="M0 0 C9.86105335 7.3391173 15.91087345 14.79760172 18 27 C19.39220253 38.06801015 16.54781236 47.25778868 10.32421875 56.484375 C4.24675919 63.91703819 -3.5786662 68.28823654 -13 70 C-20.90197397 70.70175681 -27.71876138 70.19482919 -35 67 C-36.010625 66.5875 -37.02125 66.175 -38.0625 65.75 C-46.54265806 60.69799094 -52.74487201 53.75522268 -55.55566406 44.08911133 C-57.36948608 35.56115805 -57.31281349 24.14692026 -53.4609375 16.23828125 C-47.72773148 7.45451908 -40.02621524 -0.44380521 -29.77734375 -3.4921875 C-19.82229806 -5.3123787 -8.92572817 -5.15157768 0 0 Z " fill="#1684B6" transform="translate(56,134)"/>
<path d="M0 0 C4.53391566 1.30632145 8.89830353 2.9958408 13.29296875 4.70703125 C14.56954102 5.19411321 15.84651094 5.68015411 17.12385559 6.16520691 C19.78879486 7.18026747 22.45020544 8.20391043 25.10913086 9.23461914 C28.50708969 10.5516377 31.91084311 11.85277765 35.31705761 13.14827442 C37.94984153 14.15044105 40.58055388 15.15794705 43.21056557 16.16736412 C45.07174338 16.88158917 46.93371481 17.59374505 48.79570007 18.30586243 C49.9307045 18.74609238 51.06570892 19.18632233 52.23510742 19.63989258 C53.23023849 20.02405838 54.22536957 20.40822418 55.25065613 20.80403137 C62.47284765 23.94569531 62.47284765 23.94569531 64 27 C64.47708305 31.13471975 64.43124491 33.31595634 62.1875 36.875 C57.92382184 41.40290611 52.85529838 45.13900475 48 49 C46.28911381 50.39270309 44.58078239 51.78855042 42.875 53.1875 C41.9778125 53.92097656 41.080625 54.65445313 40.15625 55.41015625 C37.71333947 57.41145139 35.27780396 59.42153784 32.84375 61.43359375 C10.64047313 79.78127025 10.64047313 79.78127025 6.1875 80.375 C2.8094096 79.9775776 1.45586986 79.27257945 -0.84692383 76.80761719 C-3.38175642 72.83389275 -3.72096583 68.015042 -4.4375 63.4375 C-4.63432373 62.27959961 -4.83114746 61.12169922 -5.03393555 59.92871094 C-5.46657844 57.36805503 -5.8913752 54.80723374 -6.30566406 52.24365234 C-6.91992103 48.45877491 -7.56800479 44.68033882 -8.22392273 40.90248108 C-8.78792294 37.65351471 -9.34544599 34.40345901 -9.90139771 31.15310669 C-10.17389427 29.56022255 -10.44738129 27.96750752 -10.72189331 26.37496948 C-11.10847297 24.1207544 -11.48699065 21.86532763 -11.86328125 19.609375 C-12.08282471 18.30967773 -12.30236816 17.00998047 -12.52856445 15.67089844 C-13.75631613 6.11083931 -13.75631613 6.11083931 -11 2.0625 C-7.18143834 -0.56276114 -4.44727052 -0.6435258 0 0 Z " fill="#D01C27" transform="translate(171,187)"/>
<path d="M0 0 C7.74927607 2.32478282 14.69288247 4.8663366 19 12 C19.7797917 16.24386634 19.67713434 19.60449557 17.78125 23.51171875 C15.78279575 26.30341909 13.69906775 28.13154566 11 30.25 C10.01257813 31.03503906 9.02515625 31.82007813 8.0078125 32.62890625 C7.01523437 33.41136719 6.02265625 34.19382813 5 35 C3.28831419 36.39172022 1.57996369 37.78755275 -0.125 39.1875 C-1.01832031 39.91710937 -1.91164063 40.64671875 -2.83203125 41.3984375 C-5.31775564 43.43436414 -7.79065331 45.48537367 -10.26171875 47.5390625 C-11.38779541 48.47262573 -11.38779541 48.47262573 -12.53662109 49.42504883 C-14.02198084 50.65689995 -15.50546935 51.89101191 -16.98681641 53.12768555 C-20.86253105 56.33817907 -24.75210612 59.29921974 -29 62 C-32 59 -35 56 -38 53 C-36.44110459 48.84617311 -33.40287637 46.53069647 -30.0625 43.8125 C-29.48129395 43.33055176 -28.90008789 42.84860352 -28.30126953 42.35205078 C-26.53982067 40.89434972 -24.77077799 39.44634527 -23 38 C-22.03707031 37.20722656 -21.07414062 36.41445312 -20.08203125 35.59765625 C-18.29547191 34.13076987 -16.50517285 32.66842487 -14.7109375 31.2109375 C-12.79003461 29.64432218 -10.8795735 28.06486367 -8.9765625 26.4765625 C-7.99429687 25.65929687 -7.01203125 24.84203125 -6 24 C-5.113125 23.2575 -4.22625 22.515 -3.3125 21.75 C-1 20 -1 20 2 19 C4.32436614 14.96294303 4.76371582 10.5556537 4 6 C2.88061576 3.69796198 1.61438027 2.01797533 0 0 Z " fill="#E0982E" transform="translate(307,195)"/>
<path d="M0 0 C0.66 0.33 1.32 0.66 2 1 C0.56394807 4.38818502 -1.20466579 6.3186598 -4 8.6875 C-4.70125 9.28949219 -5.4025 9.89148438 -6.125 10.51171875 C-8 12 -8 12 -10 13 C-9.48223379 8.89552608 -7.35372556 7.04300477 -4.4375 4.25 C-3.61121094 3.45078125 -2.78492188 2.6515625 -1.93359375 1.828125 C-1.29550781 1.22484375 -0.65742188 0.6215625 0 0 Z " fill="#4885A7" transform="translate(265,12)"/>
<path d="M0 0 C0.66 0.66 1.32 1.32 2 2 C1.34 2 0.68 2 0 2 C0 1.34 0 0.68 0 0 Z " fill="#577F9A" transform="translate(288,472)"/>
</svg>
